<mxfile host="app.diagrams.net" modified="2020-12-01T07:47:45.979Z" agent="5.0 (Macintosh; Intel Mac OS X 11_0_1) AppleWebKit/537.36 (KHTML, like Gecko) Chrome/87.0.4280.67 Safari/537.36" etag="idaUY3IgoAv2lxLAsS8X" version="13.10.1" type="github">
  <diagram id="Zi5uE0XQ9JNwUYSSlTxG" name="Page-1">
    <mxGraphModel dx="900" dy="655" grid="0" gridSize="10" guides="1" tooltips="1" connect="1" arrows="1" fold="1" page="1" pageScale="1" pageWidth="827" pageHeight="1169" math="0" shadow="0">
      <root>
        <mxCell id="0" />
        <mxCell id="1" parent="0" />
        <mxCell id="p4yBe18Hud6a5C_zWHnX-1" value="地磅" style="rounded=0;whiteSpace=wrap;html=1;" vertex="1" parent="1">
          <mxGeometry x="230" y="170" width="370" height="170" as="geometry" />
        </mxCell>
        <mxCell id="p4yBe18Hud6a5C_zWHnX-66" style="edgeStyle=orthogonalEdgeStyle;rounded=0;orthogonalLoop=1;jettySize=auto;html=1;exitX=0;exitY=0.5;exitDx=0;exitDy=0;endArrow=none;endFill=0;strokeColor=#82b366;fillColor=#d5e8d4;" edge="1" parent="1" source="p4yBe18Hud6a5C_zWHnX-2">
          <mxGeometry relative="1" as="geometry">
            <mxPoint x="170" y="355" as="targetPoint" />
          </mxGeometry>
        </mxCell>
        <mxCell id="p4yBe18Hud6a5C_zWHnX-2" value="" style="ellipse;whiteSpace=wrap;html=1;aspect=fixed;" vertex="1" parent="1">
          <mxGeometry x="190" y="340" width="30" height="30" as="geometry" />
        </mxCell>
        <mxCell id="p4yBe18Hud6a5C_zWHnX-3" value="" style="ellipse;whiteSpace=wrap;html=1;aspect=fixed;" vertex="1" parent="1">
          <mxGeometry x="190" y="140" width="30" height="30" as="geometry" />
        </mxCell>
        <mxCell id="p4yBe18Hud6a5C_zWHnX-24" style="edgeStyle=orthogonalEdgeStyle;rounded=0;orthogonalLoop=1;jettySize=auto;html=1;exitX=1;exitY=0.5;exitDx=0;exitDy=0;entryX=0.75;entryY=0;entryDx=0;entryDy=0;endArrow=none;endFill=0;fillColor=#d5e8d4;strokeColor=#82b366;" edge="1" parent="1" source="p4yBe18Hud6a5C_zWHnX-5" target="p4yBe18Hud6a5C_zWHnX-22">
          <mxGeometry relative="1" as="geometry">
            <Array as="points">
              <mxPoint x="650" y="155" />
              <mxPoint x="650" y="420" />
              <mxPoint x="428" y="420" />
            </Array>
          </mxGeometry>
        </mxCell>
        <mxCell id="p4yBe18Hud6a5C_zWHnX-65" style="edgeStyle=orthogonalEdgeStyle;rounded=0;orthogonalLoop=1;jettySize=auto;html=1;exitX=1;exitY=0.5;exitDx=0;exitDy=0;endArrow=none;endFill=0;strokeColor=#82b366;fillColor=#d5e8d4;" edge="1" parent="1" source="p4yBe18Hud6a5C_zWHnX-4">
          <mxGeometry relative="1" as="geometry">
            <mxPoint x="650" y="355" as="targetPoint" />
          </mxGeometry>
        </mxCell>
        <mxCell id="p4yBe18Hud6a5C_zWHnX-4" value="" style="ellipse;whiteSpace=wrap;html=1;aspect=fixed;" vertex="1" parent="1">
          <mxGeometry x="600" y="340" width="30" height="30" as="geometry" />
        </mxCell>
        <mxCell id="p4yBe18Hud6a5C_zWHnX-5" value="" style="ellipse;whiteSpace=wrap;html=1;aspect=fixed;" vertex="1" parent="1">
          <mxGeometry x="600" y="140" width="30" height="30" as="geometry" />
        </mxCell>
        <mxCell id="p4yBe18Hud6a5C_zWHnX-6" value="红外接收端" style="text;html=1;strokeColor=none;fillColor=none;align=center;verticalAlign=middle;whiteSpace=wrap;rounded=0;" vertex="1" parent="1">
          <mxGeometry x="210" y="350" width="40" height="20" as="geometry" />
        </mxCell>
        <mxCell id="p4yBe18Hud6a5C_zWHnX-7" value="红外发射端" style="text;html=1;strokeColor=none;fillColor=none;align=center;verticalAlign=middle;whiteSpace=wrap;rounded=0;" vertex="1" parent="1">
          <mxGeometry x="210" y="130" width="40" height="20" as="geometry" />
        </mxCell>
        <mxCell id="p4yBe18Hud6a5C_zWHnX-8" value="红外接收端" style="text;html=1;strokeColor=none;fillColor=none;align=center;verticalAlign=middle;whiteSpace=wrap;rounded=0;" vertex="1" parent="1">
          <mxGeometry x="570" y="350" width="40" height="20" as="geometry" />
        </mxCell>
        <mxCell id="p4yBe18Hud6a5C_zWHnX-9" value="红外发射端" style="text;html=1;strokeColor=none;fillColor=none;align=center;verticalAlign=middle;whiteSpace=wrap;rounded=0;" vertex="1" parent="1">
          <mxGeometry x="590" y="110" width="40" height="20" as="geometry" />
        </mxCell>
        <mxCell id="p4yBe18Hud6a5C_zWHnX-34" style="edgeStyle=orthogonalEdgeStyle;rounded=0;orthogonalLoop=1;jettySize=auto;html=1;exitX=0.5;exitY=1;exitDx=0;exitDy=0;entryX=1;entryY=0.5;entryDx=0;entryDy=0;endArrow=none;endFill=0;strokeColor=#82b366;fillColor=#d5e8d4;" edge="1" parent="1" source="p4yBe18Hud6a5C_zWHnX-11" target="p4yBe18Hud6a5C_zWHnX-21">
          <mxGeometry relative="1" as="geometry">
            <Array as="points">
              <mxPoint x="774" y="553" />
            </Array>
          </mxGeometry>
        </mxCell>
        <mxCell id="p4yBe18Hud6a5C_zWHnX-45" value="网线" style="edgeLabel;html=1;align=center;verticalAlign=middle;resizable=0;points=[];" vertex="1" connectable="0" parent="p4yBe18Hud6a5C_zWHnX-34">
          <mxGeometry x="0.7362" y="2" relative="1" as="geometry">
            <mxPoint as="offset" />
          </mxGeometry>
        </mxCell>
        <mxCell id="p4yBe18Hud6a5C_zWHnX-35" value="摄像头道闸控制线" style="edgeStyle=orthogonalEdgeStyle;rounded=0;orthogonalLoop=1;jettySize=auto;html=1;exitX=0;exitY=0.5;exitDx=0;exitDy=0;entryX=0.5;entryY=0;entryDx=0;entryDy=0;endArrow=none;endFill=0;strokeColor=#82b366;fillColor=#d5e8d4;" edge="1" parent="1" source="p4yBe18Hud6a5C_zWHnX-11" target="p4yBe18Hud6a5C_zWHnX-16">
          <mxGeometry x="0.2" relative="1" as="geometry">
            <mxPoint as="offset" />
          </mxGeometry>
        </mxCell>
        <mxCell id="p4yBe18Hud6a5C_zWHnX-11" value="车号识别" style="shape=image;verticalLabelPosition=bottom;labelBackgroundColor=#ffffff;verticalAlign=top;aspect=fixed;imageAspect=0;image=data:image/png,iVBORw0KGgoAAAANSUhEUgAAAJQAAACeCAYAAADUpyOyAAAgAElEQVR4Ae3dB7AuSVmAYZAMkqMSVJJkBCQKwgICknMOIogglFjkVIDFuoS1wLDAriw5SiwyBUpOkoOAKBJUkByUZGKsZ9z32jucdO/ec++59/xT1efr3D39vfN1T8/8c072k5/8ZFq53TsG0zTN+ic7/ud//mf67//+7zn+G9/4xvTc5z53Os1pTjOd4hSnmE52spNNJz/5yadTnvKUs1/4Z37mZ+bwHLeCaffClO4BxN8RUKD6+te/Ph1//PHTqU996j1Anf70p58hAhaggHS6051uOsMZzjCdrEpXcneCFUz0n5/8r//6r+nHP/7x9J3vfGd64QtfOMPEEgHoVKc61WylTnva085+QHHiV0Dt8ik/q0QCKfcf//Ef0w9+8IPpX//1X6eXvOQlM0isEGfqCy5h1msF1C4HaZyRgiqYyP/8z/+cfvjDH85T3l/+5V9OrBFogNQaqrUTwFin1ZS3gmrP4nsEjN/6ybT37//+79PHP/7x6Q//8A+nI488cnZPetKTZvn4xz9++qM/+qPZHXXUUdMTnvCE1ZS3HMjdFs4qOe+mPTB1lwcq1up73/vennWVfOIDL/hMk6s11C63UuAIJn5wAANEYAMOKc4i/bvf/e70ox/9SNY5nl+Zjm0Hqoa6EoR1zFFnndCYXpgcnTw6z4lf76iMdGU6xjZKK2+yPNVf/G6SjTP9ZImSxiG9BV1jRm47UDWmE0CoMyl5qbhlvHB5SksGljbGPLUprjzVI26ZdwyXb6yjMrtFOnfjxn3/+9+fLRJLFFTSOxqn5LYDpWGNsUqIJnWO5NyapvQ6XBlmVpryZFAKB4E81Vc90ssbBOMASOPkWx7lr83Cu006/5xzb2xH/xjX+Gw7UG49gZOCPv3pT08PfehD57uG4447bvrABz4w35rqnKvha1/72vTNb37zRPO0skEgHwdOcR3ydPBLB1sDEECVlbYsX93KK+dooHarbEyTm43DtgNFSazQt7/97XmT7F3vetd04QtfeLr0pS89XeYyl5l+4zd+Y7rtbW873e9+95uOPvro6fWvf/30uc99bvq3f/u3PVaEgrNsIAgK0ORnpbjilFmmBZW0JTTlV4a/Y7MBPNzTjUdjkuycjVH+5LYDpSGKBNWXv/zl6VWvetW8CXamM51p3iw785nPPJ3xjGecznGOc0yXutSlphve8IbTb/3Wb00PetCDJnsbNtXe/e53T1/60pfmOqoPYE6wg18cyxMs2gWYeG4JlHwBqN4GSHx1NFC7VRoTY5FsXIz3WmOy7UDpiGmP9bCNb1PM8yDOtv3P/uzP7nmS3Ra+tNOc5jTTec5znuka17jGdNe73nV6zGMeMz31qU+dXvCCF0yvfe1r56nyX/7lX/aswbTjJIOMBHFTmzB4hHPBVpkGDXji1hqw3RjX+Dj3jvzL8dh2oFKO9dE73/nO6XrXu96eJ9eeWgdR2/hAso1vO5/fdj8LxqJxF7jABWbI7n3ve09/8id/Mr3sZS+b3va2t02f/OQnZyvmYWYwgNhOL4DEsVL6AbSsmbSuQIMVdOMgLgdtt4Xp0GGcGivjlLUax2PbgdJwnXnHO94xXfSiF51Mc1kh0IwQ9UoECbLxQaSw50Vcr1OA7yIXuch0q1vdanrc4x43veIVr5it1z/8wz9MX/nKV6ZvfetbMyT6YWA6+foEKPENDilcXvkqIw1o5HgI5wKx+sUr31G+4govZem1fajIbQeqgXTn9vznP3+2OB40mu4CY3zoCKSgAh1w5CcBVTrQ1MHKmTazdPKe5SxnmX71V391+t3f/d3pmc985vTWt751+vu///vpq1/96nxH6aUx03AHKzaGR5hSdHnJMY6ihTtKEz+CKjwey3LSxB3qbtuBYhm4f/7nf57+4i/+Yp62gBJETW/iuCzTCBWQWDHwgJB/TA+26gBbYLGGZz/72aeLXexi001vetPpsY997Hxj8KlPfWp+PpXFoUh+EHRkbUASHKPi+eUpX2kjYMWVb0zTZukjiGPcoQbYtgNFEaYVFuAtb3nLdOMb3/hE01VAjZYHEE11S1jkB0vTpHQgiWeZSGHlmx75wQis853vfNOFLnSh6RKXuMT0a7/2a9Pv/M7vTH/+538+veENb5g++MEPztOkC4AiKdk6TP/FNT0GR0AAQN7iydKqxziIl0/cGN9FJ89Ybpm/cjtZbjtQBssi2OB8+MMfnu585zvPQKX04Akg1ogTZsXkEwZOEEnLQkmzWP/FX/zF6Zd/+ZdnUEx3LJL8ysnPP1rF6gXZxS9+8enKV77ydN3rXne+o3zkIx85PeMZz5gvgM9//vPzW4tZqJQZGM5rVHxwdRFZ/BuD8isvv/qCNGCXbVTvWLb2d6o8IEAZOAPwiU98Yt7IbKuAUoERROQISpCRwGB9ShcHEHGmtZ/7uZ+b7wAveMELzhunrBBnA/VKV7rSdMUrXnE6//nPP1std42cNVgWTV0sGisnn/w3uMENprvd7W7zzv6f/umfTi9/+ctnK2a7wsar8woWMIAngISds3T+IAJPlg4oY/oIDj93qEG17UAZTINm6rBLznJQpGkrKxFQS7jEA2eM56d8dXBZHmC0QBd31rOedb6jvMIVrjBd5SpXmRfpLBHgWDKbqO4OWSjl9IdTt/Kgr49As11xtatdbbr73e8+r8Oe9rSnza/Gvv3tb58++9nPzlZshAkIWRFgGAcgyUOWPsI15g+uFVCLOxVTgEF0l/fSl750Ote5zjWDRHEcELJEABrjAonMIskTPBTNci3LAIIFAoVynDiWh8VifX791399uupVrzpD9Qu/8AvTec973j0OZMGkbmW1yYnXrk1Xj45ufvObzxbs2c9+9vS6171u3mtjid2E9FJaFipISBeZcWlPbAQn2Iwdf2kBl6y+wjtBbruFcpKuQvtCT3ziE2cAsjwpmxQ3OhDlKLUpj19+yqXogCIpmwwgU6E65fNo5+d//udnyXpxoBPPil3nOteZN12POOKI6XKXu9xsyc597nNPZzvb2eZpkFRGG/VL3fziWEt1gfUud7nL/Frsi1/84nnD9e/+7u+mf/qnf5ovKpCx1oFifIDhyJqPaW5m2pyVR/4O5SqrTGmBVlptFC+8Vadex1hX7dTmWNe2A6UzrkZ3UHa3KbzpKsWQI0z8wVZa0AmbKlt/keBSrzR+6yAOSJSdlTG1jRAup1ztysuSsWAW6aY5Vk0cAANZPcrLP/ZdH/Q1yKRd/vKXn59NvvKVr5zXkV/84hfntypYJ2Pj4Lcus5MfdCluznDCH3EUOSpYknDKl2eZvqxjhKD8a8VVrvrI0b8sc0CA0qgtg2te85rz4BvwAKAAblQK/1pABU6gpDTlA0seYXlMXawUf2UDWtnakeec5zznbGFAY0rr4bV+sDymt2tf+9rT9a9//ela17rWHDZNslzdZIBLP7j61LpOe+pl9QDKink26XEUC0RJLBewOGFTojiO9eownh3yFU5Kk19akp8bYZRPmY2cPJUtf+CKX5Y9IEBp2G+7LGwp0YBTFAUEzhIoCuHG9MqAo7L8ygoDJ6UqmyUUx8nLiQcBBcsXcOoPMuAJyyt9LAM2d5UW9bYbAHb1q199uuQlLzlPqyBSVh3aBRN/bUsHrnWY7Q4WTB33uc99pmc961nTe97znnlXP+tFGkOH5UPxKXtOGP6MYA3Rs/KXEJS+BKMweKpvBEm5ZV3yHRCgmPKnPOUp88Aa1JRo0HPrASVe/q788hUmyyPfqMgxTR5pSQrOycdvmqRolg0wQFAGFNKBJSy/87CmslHKsXCcd71+5Vd+ZV6HsWrWZ+qrDDA7H2DVR/EAs+EKzlvc4hbTPe5xj/lFRAv+97///ZNHRpTIsV5ccAFNPIvEoqXwpYUKFHkDtTpHCR6u+tXHcjrUIW91jXLbgdIp7zI97GEP26McSjGYIwj8o5OHW+bJ2pDSSUpJMeIKg6A61LMsS7HFgYXlMf1RrO0N2wwW6Jyw6Qpk6leuqU7dlQcPS8x6/dIv/dJ856gssC572cvOWxniTaPqUQc41QuqzkecPCyY9dwtb3nLeQ3qxsamq/fKPvrRj84vLlI0iFI0uPjBwA8qfgAK0wkgSGmlyzO6ygaPtR1/kAbXAQVKB+0/3f72tz/RFU4BS1iEc0AImPzlD5hRUgQlyFM8YMYyWbAgK19TEgCBTsksFBCsd1galgMkLJA3JuxjuaOzhqp/plBQODeu/tuWMK2pRx02XNVDAibQAK2M8+D0z3mxmllIsKrLi4j3ve99Jz+2/LM/+7MZsPe+972TO0pbNK3DgAacAMuqBckSIBCNTlk3CmR1qkP5gwIUmn1swW61QaY8ik35KSOQkvLkiltPyhcc/MGlbmFS2WU+8fKWrk+VoUBpWQ1hi3DKtH9ls9TUBDR3gAAEh+kv6+tcQcJqgUJ9xsDUaoNVHYB1J8kaslzqYCHbF5NXH/TfOeqfOgJf/aZaNwweaz3iEY+Ynve8582AuZC9Tu09fTAAYbRSo4Vaz0rJY6olOUeQKjNaJ/4tTXlzLcMdQXSP8Sp3qLSGxcnrKjJABtXAdPXyjwoV3ooDxgjHCNNYXp4xzL8sp/0xXjqlZRGkqR9srBHlsWD1m7WyMPduvL0szxFB0ZoKKMqBAgTOnV8d2lCvukgWy+Me2xWslrUYB1ZTcXeUxpFffcq1WcxCSgMwyNXzgAc8YP4cj01XgNkPZMFMX360GWiskj0vFov0GwD+dE2nQCpOvLh9AkqhYOGvkSqTJq4jkIS94PbgBz94HhBXLGUlKS/FLBW/UVi5XDCR4sZyy7C0jcrpm/6MTlz1pHhKzEpoV576wbqwOMDwdupv/uZvztbDBaU8ZXO1ZSyAYYEPwrY5sm7uHL0V0TpKnWByLgGpXHCpV5ry+i1P/QZpr1N7jdralvVp/wtI6Ro4o58uAWj6G/VL76PbkoUKnI1kMJHyBdjf/u3fznsunZiTo4wUL9wgFLcVuREYlQ+EwqNclpeWksc+ZU1c/eIDp/wsDUDaSK1N5ygt+ExnpkpgsGaWAKarLi5AcMorZ+pkmbTDrz79Y/2U9RrQbW5zm/nhtbUeqJTVT1ACVJ/cSJCNMT04J+ngB9nNbnaz+Qch1mBZLXtjWSRx9Mk4mDKBx8KxaqzU6DYFSkWbgTROd/mBhXI/i3JVUUZXlJNz8gZ7VN6o8M38ynMpmBQeyy3DY9ror66ktBEuijaVUL7+1mf5nYO8JMW5M5NfHeL0iwJNSxbUFCxMWkOBzA8xTJfWZ6xPMJLqAZj2tStOO/KBSDynLqCpx3rKVKwf+gAyeUl9pYfOkVQevMpkER/4wAfOb1d87GMfm8GiT5DRL9BMlY4RJv5NgVoPpsxc1iiZZdKYuGOOOWZeeDb4TsZJNeApR1gecisu5a8FVPVvpR551bWsR7y+SeMf6ywtmIAGEpKjdBII/BRGmfKLZx2AFxSUac1joW6R7u7Rugwk7gwDUx1ZPeemLlL9gFEHa6Z+d5asj6cTNk3VBRh5u/ich7qrX7w4eVhU/fCTNs8hQTQu6OkZXPsVKJUFEGsk7ODnHBaF7bk4eUBRFCecDBBS/BguTnxumV4eA5Ir70ayepZAVZ/BVn5MHxUiX+AVL6wPymUNpIkDHsdfHDC0Iz64AOEOksWgXNYNXMKsnemysQuS4BAfFLYnbHGAFWAgIVlGNwzgk1c/9Uef9U3Yug9QFvGtnUi6ZSzSf8aFPEkWCqEBZT7ViKN9DAs+87wTHAdbp8VRRgOfYk+KbDDUmRPHrVevfo2ufMUVTlZfUjspVh7xlZUmrvAoG5PilKNEUDU2AGlzExDWSiCwjuLcFYrjt45jDdWnXTJLSeqHty1AybkbDVB1gM57YupiOa3DTKF+WGKqs25ygInOs0wjTCcJKBUGFJCySC3UVO4NA+snJ2eQxgHOTxrMceD51woXP8rKkpz6amuse6P6UupSVqZ6C9d++cdw/SguWV7p+aUFlvj80hsfeYDGiokXtoZisdxNmtKA0SLeQhs4pj/5QKlsFk29wqTp00YroAAGIFsNN7nJTWZD4Ot0Xh4EU7q2GKf7jMdeA6WAwktXRYGFXnEOCzb5n/Oc58zmdRwcgzIOzpjGPw44fwpZypQySvnVQTFBtVEd6hzLj/5le/saHutcz1/dpeszEIAkzbkIdy78FtyAyJkiPSIChUW+rQZTJmvDylmbmU5ZK2Wsx1hDdXFuEpS9053uNP9gA0SMA5A466f0GlwxMMp9nvIAoyKVB1tAFffoRz96vnIMVIPBb5DIcZAa1NLKN8Zv5tcGoHLCtbteWe2s5dbLv7fxa9W9jKvf6pZWOJBcgJQPsC668o755bMealyBY80EJpbHz8hABkYAgU0ZoHmd5s1vfvP8uQDbBByobBVYNzkYDzoWbxqMgf0GlEaa6jTWASiduMMd7jBfDU7aADQYBmotZTfQe6u08qeIQwkofc1K8HcujUVjVZiUHyymNHBwwGB9OODJwy+/dNCwSqZG2wreZrD/xCL5IInHMyCht+7o+MX5yElLGbrtCLC9AkrhLNAox0r5A0rlGv/CF74wr5+cqIEaByS4yMAiy1Ncg7tVeSgC5dyyRMHjPMQ3HuUBiPHMUonPGpGlsWYgMu5ZNhZJ/coC0fTm94h+wcMamdI8bgGRsOkNWPQKKkeGQl4skCNM/JtOeSoaQco/tzD8UVl3AIDyAQtzeoOylAFkUBpA/o1cdYx5xBVeAmVAN6u7OpeyOk+qXNa7XnjsO8UHV+0rxy9fYGSVhAHFAgFJHo4fhABi0dRhK+COd7zj5HVkFz1w3I0DCSAA4qdDknVKt72+ArQs1V4DFUBryWBLakg+nfHZHXsgTtZAOJlOdBwkcYUDYBz0ZZnyJseBLi+pruor71pybGv0r5V3X+LGOtfzq3fZd2H5A6v08o5QiWN5rJ+ySMHWONgG8FzxyU9+8vytB1YHQK2T+B0kyBgHeVgthzhftnGAjp7J/QrUWJnKdSaaX/Oa18zvQNkr6fa1QSJdUQYh8+3EXU2cdIMkzsBxwdHAJhvgBq6ypReWby23kZLXyr+MW6/8VuP1r76re1muOLJzIY0fC1S6OoSNJ0tlzI0lvz2me93rXvNr2L5I0xpppuMEiIBFh9LAxJ8LIvoVx2AUNzLAv+mUJ9Na1qmKVMyvkZyw1ySYVZ/Y8SKYxZ89KRtzNuGcOFAaBCff7azBMkDi5BMOqgY/mUJKb9AN9KiEwku5VGDhZb71wuXfn7K2xjrFOWfnxwUOv3M3RqyTMZTGb3oz5n4M4Zc21kZ0EwzpjgRRVkeYLk1r6TaQ5BEvLG3pNgVqI5hUWqN1RkfQbv71WoST4HxK52/+5m/mk/vt3/7t+U7DwtAtrUcL7kLAZRCZa48EDAxnwEa/wQIbEy+vQTWg8qQEg8+fctaT5R/lvuQdy4/tLuP3NuzcKuOcxgunczQG+Vkk2wHeo/Ld0je+8Y2zPuiK9Qki+soPCumjC5Qxjr/49eRJAqpKQZQ5DCzER735N7D45XFy3sdxy+q7Ab4h4Gm7HV4WzJxvQw404DGQKSrwGmhpQZYC1oNiGV8do1zm2Sg8lttuv3MDDlmfhBsPY8VC3ehGN5o3J13QnF8xWw8Zexe7I32lw/XAGePLu5HcJ6AAUaXA0FEd7AAYgGyK9eafNIC5TfVP/Vg2YdK8bsGnDl878Wkd33Hy3hBLFTAGzoCRrJHHCQaXdRpByk/BDfxWZEBsJW95KrOdsracFxdUtSlsjDyH83asd9CMKR04QGF8s0rG3JEOyREc/jFtb/z7DFRQaTww6pQwJwwurqN4YXW4gipPAtTHXa3BzPuf+cxnZsBYMW8bevZkIEFEBleDa/ANekrYTFZulJuVKX0sw198cpm+r+GAIUe/dlhv9Zrq3FkDxzg6WKOevVmCGFtjLn0JSbojS0vHhbciTxJQGuzQWPCsFe9kOpHACTSWiV98J64+J8f6sXKmR1eetwqtC170ohfNPxIYF6EGtamxqznlrifXU3L5pedPrldmrfjKnBQ5QpTfeaozoDzLs/dnamscjV9gjWtdcUsrdcCA0jhA1nMUX57oFgYIk+vkxIMGVFEeQOOJOEnxnPxg6gqTrzT1MOmeT1lrsVYGlrUyyBQLqLVgWCp2LQjGcqN/LLteuWX8WGZf/LU/Wt0uFrIbE68E++qL8WWZjJXxc4gDWhc6nTjSl/RRD8Lr6bt4edZym1ooDVfJUtbZsUNzT0/orBOj/EAg1VGdXSXCweTEnHBlxYsDGOslzO8tQjvx46J9hMiVnDL2RpHrlRmVWH3yihfmX7rynVRZvWM72mWlXEzG4A/+4A+mf/zHf5zHpjE0jsEz+gOBLvIHVOGlrrca3hJQATBWOlNxAjgpXWfKU7qwk9FhfrJ8+ZUXVzudXGWlcyBzkK5G+ywNqEG1UB+nhKaFjRQqPxcwy7zFl2+ZV/vaKV55Zcq/rG9vw+qpTH2pDefLQrvD9aqQxyTGjGVqbI0XfzrgN5bycQHUmBeW5ijfVuWmQG21ou3K50Q7MdaOlbKmsgAFlEG2dmrbAFjiyCCzT8N1pZseQSBsDaa86RIc4iiRsgJSmvLitCMfpZLddaZscfJqgz/Q1KuMOsUHYe1UXn5ppSsjD1mauuqLO13x73vf++aZIDAatwDZH1Kd1bOevnc8UE7A4WQy21618B+tbIamYAoxsAbaVoMwpUoHFgWR0jyW8PQdSK5wL/jbDARHDkT84FBWvqAklQUGRQdDEEnTBsWXlhyBU28AK6ve6hzrdV7C8nDBJa9z0n/fYadk40SyQiMAgbC/5CELVB0HU3BZP/kVB6VRHmWNigFa1gkUrmKvy3rBzKaf/S1vNd761reenzf6b1jeEfIqrQfa6k2BwAoGAFA6SPlJ7aZg/sLi+OXXFw4A5QGGfumfi0AbwJFH3cLqGP3qklcdtQ90P4m31eJojLYTJm2kl6Xc8RZKhx2tAYS950wRBr+rN0tFcfx22/1syFdPPKB2FVMgpYBQOqcevyIBkbDdeu9p+1FASmXV1EnBIxTSAyCpLvkpvilZueAQP0Ki/+rh8ssrX7CJ55QLSKDrr6cJj3rUo+a73iAawVoqfLvDOx6orjgSVG5/fZCrgaUIkFACUFz5FOGdai/sU7BBp4wUAA6AkRQHAFd6SvQDAD9X8jwMaGCRxlEsqR3x0oX1h1SPtvRJ+gi+9vRxrMcFIK78nZey5eVXp3OULqycadp5+AqeZcB40W1kRbYTqh0PlKuuw4B5LnX88cfvUYor1eBSsMG2wWf68ssPyqQUDlTA8U61by1xpkCfOPRwWnn5AEJRnimCygNs9VC4tmqPcsGlDKltZaXbzX/IQx4yv8jm929euwUEx0q2HhMGGUCCxQUiXp3ipAGQk0bqj3IcK2i/zxOH0UKNVqrx259yPSh3PFA67iAtND/+8Y/P3wqnYINLOZRIUWDyUr73fyi4h8t+2Ojhs+eDbq/ttL/pTW+ad5Z9NML3lbxi41UPcKkPKCyaOr1yw2qJr63ap3DK56RRMlh9p8k/jvTv14499tj5//35Z0Z+omT/DPBdCOrK4qmPP4BAFFTaUL++gY60NmSN2grYn9BsVNchC9QIk0GjJOsig2vQKYPimX6vwkhLCeIsWI888sj5UzYeStvDckW3a69+G6Usn4fS/pOo36hRNigp18/CLdYB2hRHZjGCQH7TrK/12cTVFqvaVO1bTT5e+/SnP33O4//M+LdsfipunadN5wMU7aqPCygWyzkLO3/98SpQF924PDBW23kcskA1WJTuMQylG3iDnsINrCftnOnA1QsmXzrxeox3sUwHyvv4g3+c7bnXRz7ykXk9ZpEPNop3B+mTgxbnFAccdZrG1K9t8VkViqVobYq3dvPBr16XzXJo3zkALb88H/rQh+b8PnkELhcAoE3N4ARQUGkriMXpj5fnTHfjMSp7jM+/WXr5tiLHuvgPiSnPlUcJfmPvX6Qx+xRqcE11lG1q4igBBNZGFu8AsRHqhfxXv/rV8xXNIlC8rQPbD7/3e783/dVf/dVcP+XI6z+2A7U1jynPXaP1kPZNb5QdSMKsinWZB9j621RU/wGb5ZDezj/IxEtnKcHuFymmYedhyu0Gwzqwtmxz+C2dzV5l1cnVxnpAjBCsl6f4Me9W/DseKAPkcDJeZ3ElU6irlbSApmx3cwCzpvI9T5+xZnmUt4vsd2iUzzWd8LNkrB0YLaRZMApy12TNBSj1AtjazJ0fkFglfWCx9IMT73/BeOdLfwFDufoQVGSKSfkgDgpgSB8PF5KvAFuLWZ9ZiJvmXRDd3Smn7uBszMZ68tf+dsgdD1RXGwkMG5NNA65WFsMdmatW2FpEHtsLFGFxfM973nMGrbsmILA+8gcYINXlG5WmJmssr8yY+gLINGTRbwoEWVMimd/6CSBgAgloRuc8cuIdTYP5PYvjlHcevb5j89JPnjyz8yzT1K2OESLhgATYWsd2gFSdOx6oBsUV6Jc0FsfWDxwg3Nr72AM/JVuY+3g8ZQDDwtdXRVgulikQTCGsirCrHViskPWLRbPyoLBIZ73k9bgGsOMjn+AGlKnJf6kCTO3r/+ikOReyeP0cLQyYyyNfoMnHidM3sAHP2lD+JUyBtYQq5W+H3PFANSgGzANhUxyYKJ+SAQSYYLEHZRpgnVzFAJEPMBwA5FVePfkBwfIAk4VTB8WB2FSnDlYQTHbR1cPSqUNZYe9nWacBpekuaEjnUrjzIoOHX5vBARBhgPWNAfUKA0m+psvKktoY4VoBtXihzwAx90cdddSeu7imHfsw9nQolBXy7y1csSyEhXU/NpXOAQNEpj/TnjAr1Z0jadHu7osFsG6zuamMtRaYQAwmgIJJGek+zqUcZWZ1KHjpUrB4Rze2ZscAAA8lSURBVDJ/0IGJX10AEja9FZa/dvi1m1RurHdOOOHPsj/7M7zjLVQDZL3gO9xZGtYCCPaITEMUbFPSGsiVa6vAdyKti1gR+QEBABJQQACZsgC1AAeGvSyLemBSGKvHoskL0Pa6spTuKpV7+MMfPj9T0+csTUolRyXz6ydZ/Fp5pHWoM7D0yxFg/AEl30bH/gRoWdeOAMrJN5hLfwPzile8Yr7Fp/ymOwp22w8klgY8XmsxsKYG2wHWR5StDJhAACYyiwWw6pWPFXLbbjpRl7upANaWhbny4BavbdbR+kkZygaCPiwHfBmWTxsgIMd0aeJzAARQi3D5TX9clkpe5aqn8VtPlm9/yR0DVAPbiTXABo2zUGYdsjQUz8KYjuwPgcPU55ueDpuGPhhrSyGrpox8LBtnywBs4ABb0yGr53mhvgDEBql86gFbm576AkSA2gvzDxcpl2VTzjmNyu3cRtl5d57SHOQyLbAaG+kg40pTz9jmXNkGf8a+7A//QQeqczUQBqWBHAeKmbcnlMJZFHBQpHebTHmUCx7P7JT1IwaLeA9n5Q0aQPFzpipAgMt0p351WlxbO1lDeXYIsNLc8QmzSKZJ5fXHt7D++q//em7bOTgXB+Uu3VJx0kcQlGscRjjWqmetuGX9BzK8I4BywhQAhAaSn2kXtnPt9p8VociAYDVYDxaqqcc/1QGDgbaPZNFO8cpyrIxw054pEUxAky5817vedQ8E/p2F/SdtysMS9fAZiFkp6yd3lSwUOMZpSThgRkBS9AiFuIAqPblW/Jz5BADLdzDljgIqC2VAslAG2xsBt7vd7ea7sqYrm5msgzs1+z+mO2FWijWjUOsKn6+xVwUG4PRsDlBZJ4ABTbotA28jeLYHDnduIAOyKRdM1mrKgsw2BrDdUbq11+8UH0jJwNlM4etBUnz1b1bPwUjfEUAZIIM+AsXPOSx23apTuHUPOLpVF8eCeBzBWgDGNOguz1Tpl8fu9kAnHQQskWmQVB4QoLL4/uM//uP5+Z910Kc//em5Xe0BzmMXr56Y/irPb8PTfhWYQJw1Eg6m4tayUPuq+P1Z1772YVnuoAOlQw6DY9CF+QOKlfCKKyvBqgCJ8q1bwCFskWy3HBwg8RjFfxDNythy8M6TL7exMvKwdKBQj41R/z3TVoHpFUx+4+abSvJoz846qC3KlWexWCmwWVN5rcah/6yjOzxHQDmn3FIJG4Wrc1/KblTvdqXtGKCcYFcx6eoGlR1rymZFKJKloMQWxZRturM3ZC0FEHn5WTYPakHpGdg73vGOeQq0HvPDBD9SsBHqAxPeENCWDVGbk6waMNUFWgt/MJpiQQZe1gmYbgQ8MwRRU16ycwoIcm+UuRZQxe1NPQcq70EHyoAvByglAMFdlldCKJZjpQBl7ULR/Jx3g0xJIJAHWB6TsFTeewJUVoMF+uQnPzk/wXcnByLbDF6AY2nufe9772kDNKwTy+QOz5Rr6tSm9lkp4PoZU1aV8pqunUsuqA6Ucg9GOwcdqGAKLIPObzAo2n+zsibKOpFNVSQLQenWTtZRNh77zR3rBTwPeL1jZD3l/aie9Vlnef/IYpqFsXnqe90AUhY0wGT9WEFTLGD5tQ0mz/78c0N1gKg1VBuNwUSugFrjOdT+ph5QQUSaKrThYDV8ZcViubu71i2sBLhYI8oHFYsBKC7rIT8QKN5HS01vHuD6pYh9I3eQj3nMY+afTrlzZAXlB4xp1fpI/eKABCh11r5p0L8gYU2tnep/d5kroA4ARCOUIHKISwmFvQfkv3/ba7J2Co4UTorjAJBFsUC3VcC6SAOeNY+FPUtm2gIPSyQsHwdK+fjlOeKII+Y7SDBqS/21Ix/Q/IbPtGzqZJU6NyCBawXUAQbKgAcQoEwb4qx3THm+CWUPirLB0dqFQkFG0dJYFlaD8vlJu+Se9ZkCmyrl5Ve2fKAKFuWsx2wzsEbgYh3VLZ92+eUHlDtB0yWg6juQXChNf0Eljgu6w1Ee9DWUQTXIDTq4TB9+mUJBFtBHH330vOCmyKY+UFBod31JeVgRIAACGLYVvEPuoa6d7hbW8oKKtfLelKmVdQOUqUxb6pUPSNoEJAdk9Xhe6A1KfXUuLgT9d6yAOsDWiQIclDFeuRQCJPEOFsCPE9zmu9OiWAqlaMoFEOuV8oX5SRbHmsoekq0EfhJYnE1RcfaiwMRvrZQlAhU/6xRgQQVYWxH6mrWxmdrdpP53oZArC3WAAAscg960B6rRuSPzC48nPelJ0/3vf/8ZLmsrgHVXlvUCUtbH1BRcrBEwlLGvBCiWyN0h8AJytEbgVR/JqUM++UHorpEl6qLgB5RpbwXUAQKoq3m0UOPgs0rSvAJibdI0QlKY6dA+ktt1b3H6RS4L1DoIWBRP6cEgjhUTDzZTIim+9VD7WgEoj7tITr4glc92hLtGFgn4nYv+CY+WKf/KQh1AwFgmjmLARSlZKyABi/IoTPy48DXleCBM0awIEIAEhCwKIIRb2IOIM30FGr/86uFMq+phsfjVLR5YrOIjH/nIPX1qSus8sljBVPo4tTvXw83tiEW5wQZKt9kAcofXYGe9hIFmO4GVojyHOI9KmpKAAwBgcUABD3ACSx5OPIsEpKyZ/Bb80sismnTlQWWx7/sI+tr0pp+j09+AyjqtgNrmqwgQwcRPOSnJ4Pv1CgsEmpSVAinM5qf8fqQJDBCwIKDIqogPJkBw4gAojzKgCa7KsULihMFk+4G1UtYHOOyygxo0+qZfgSPsKJzsIjlc5Y6wUBRBKY6uaANOCaSDpCTpKaO8lOrxSlA0rWWpADE68fIAKikOaABK2hZQjrRrDir5vMLimwL6o4/1O4j0r/MJpM6lvh+u8qADlRIMeEqgoFFRgUMJjlEZ0oT9RJ3ywRAc5OiCqvTAKZwVA46pDnCsnQW4O0GPYYDr0Y0HyUFSn+pzYf0qz9jnw9l/0IEKogZ/Jmb4SVDKGRWjTNYq6dcuADEdkeABShAVBo08LFFTnHzgaQpk6QClnhbntip8+cUDZtOsm4T6tBZI9XsjeLaSZ6PyOzHtoANlUEFhcBzBMg5WAz8qbiynvDuuQAIMB5S1oJKPkwawpDIBx0pZh1XXS1/60nmtZ70GJus+/eG031FcfR7PY+nfSp5lmZ0ePuhAbTZAFLTMkyLAJ51koSg/UJKjhcoPIOngKY4/uFgqMLFU6rSf5TtT7jy58SZi2bfdHj7kgaLAfQUKVFkgMsBIUJG2HTxi8WlDi3/WyB0nsAJ7t0M0nv9hARQr5TM6e2OhslJZqKR4ayuLcU48sPyI0wGopri1rOc4uLvRv6uBAg9LlHUSDizWi/PsD1h+NGrt5KMd5Mo6rb3Lf1gC1foIIFt1gSR/5bvrA9Tzn//8+TEL68TymGZXUP00VIcdUKangCCXbgSstMoEU3BJF2dx/tznPnfeCQeRqc7CfAXUYQoUa9EaKjhGyZ8LolGWVxz/CJQwqJ797GfPVklbudUa6jAEilIpuG2DwGldVHgpAwo8/Fkn5fjFK0NapLNQ7u46tLkbF92bnfOOn/LGE8gipNTCAQWAQFkLqNI2koFVHkBZS/n2uGeO9UebtV/cSh4i3ylPUSlwK0CNcAXHvsgRqBbk+rOyUD893RmXw9JCZWWS+wJSU+RaQAF6BdQuAQpEgZQ/uTdgbQZU1jLruZL/B9hhZ6HAw6qMMqCSa4ElbYxfAbW2BdrswjlsgQJHYAXSVuQSqtWUt3dgHZZAZW22AtB6eQJrLaBcpas11Nqg7VqggLIVCzYCtdo2WBuicRo85IFyx+V23k5501xyPeuzlfiAa/vBPpR2skzjFsI4oLvdvwJqnQfIK6A2t0ZrXTyHJVAsUNNZYGwmR6s15l1ZqL0DawXU4idWI0z8K6BWQO3Zg1rCsS/hFVC7GKh9meo2g2wF1Aqoef20GSibpbemWgG1AmoF1DZ/j2Ktu7viVovydRbl9rJYJ5as96Hae7L3tXo4vLblWgG1AmrPS4NZmZMiV0CtgFoBNb6xudajl/1xt7ea8tae0jazXisLtbJQKwu1slD7Zj02sy77I31loVYWamWhVhZqZaH2y1XQ3s+BAMrC3sKc4/f1ld6FIuvL/pgmDqc6VlPeOlPeCqh9s4IroFZA7ZfZIyu7AmoF1Aqo1Rpq36ajrMh2ypWFWlmolYVaWaiVhdovV0G36iugVkDtM1DB0x6QsDWAo/eTSB8c2x8PhdUxur6z6b+za1c//OCzYzvXI4di3Tt+DRVIwUORI1C+Hc5y+aGnl+HAAIJejhvhWMvfK76lVUdh0rfKX/KSl+z5nLS+OMZfEh+Kyt+OPu94oDpp0HRQKGX6RKF/fwaqhz/84Xss1PjqSbvd68kRnPzlDTZA2Sn3odb6U18Kr+T/TcM7HqgUF1AUBygQASoL9ohHPGK2TFmYLJTwRm6ESBmfUhw/p9jH7wEF4v6rqG+V68MKpBOv53Y8UBQGmtGBSzjIWKnf//3fnz+uGjxZF3IjF1BkZfmzUoDy0VbfKQeydh36lVxB9f9Q7XigKA04lMYiZBXGOJbKv7s/5phjpuOPP3467rjjpmOPPXZ6+tOfPkv+9dwznvGMPfnlUVYdPiPty7/qeNrTnjb/WzN9MO3559q1v4Lp/2EyFocEULMpOOFfyYJHx7NY/WcoU9CXv/zl6etf//r87zP8C41vfOMb09e+9rUN3Ve/+tVpdPIr961vfWv+38Zf+tKX5nT/ppaF0rY+rKzTiUHqwtrxQFFiUxtFjsoUL9z/JPa/7Dqkga4T3UxWTj7lWqOp39rJf58CrfT6Q25W725L3/FAUdroskxA44KMBMEI0b4qXB3dRapDWFu1PcbtNmA2O98dD5QTWAuopXKF5dtfh7qCaL32xW82wLst/ZAAKqWMis2f9WBRRgACrrJ7K9U/1gFUddSe9OL2tu7DOf8hBdRGigiwMU9xG8nyj3nELcNZvuLlWQH10wvzkzVQO12mwIPVz8Ab2z/YfRr7slP8hwxQ6w0YpY5WI8Un1yu3Xvx65cQvj7Xilnl2W/iQB2ozhQXIZlI98izh3Kz+VfqJR+CwB+rEp7v3oaUVCsy9r2l3lFgBtTv0fMDOcgXUARvq3dHQCqjdoecDdpYroA7YUO+OhlZA7Q49H7CzXAF1wIZ6dzT0vz+FK+AY72nyAAAAAElFTkSuQmCC;rotation=0;" vertex="1" parent="1">
          <mxGeometry x="750" y="94.59" width="47.59" height="50.81" as="geometry" />
        </mxCell>
        <mxCell id="p4yBe18Hud6a5C_zWHnX-33" style="edgeStyle=orthogonalEdgeStyle;rounded=0;orthogonalLoop=1;jettySize=auto;html=1;exitX=0.5;exitY=1;exitDx=0;exitDy=0;entryX=0;entryY=0.5;entryDx=0;entryDy=0;endArrow=none;endFill=0;strokeColor=#82b366;fillColor=#d5e8d4;" edge="1" parent="1" source="p4yBe18Hud6a5C_zWHnX-13" target="p4yBe18Hud6a5C_zWHnX-21">
          <mxGeometry relative="1" as="geometry" />
        </mxCell>
        <mxCell id="p4yBe18Hud6a5C_zWHnX-46" value="网线" style="edgeLabel;html=1;align=center;verticalAlign=middle;resizable=0;points=[];" vertex="1" connectable="0" parent="p4yBe18Hud6a5C_zWHnX-33">
          <mxGeometry x="0.1872" y="4" relative="1" as="geometry">
            <mxPoint as="offset" />
          </mxGeometry>
        </mxCell>
        <mxCell id="p4yBe18Hud6a5C_zWHnX-37" style="edgeStyle=orthogonalEdgeStyle;rounded=0;orthogonalLoop=1;jettySize=auto;html=1;exitX=0.5;exitY=0;exitDx=0;exitDy=0;entryX=0;entryY=0.75;entryDx=0;entryDy=0;endArrow=none;endFill=0;strokeColor=#82b366;fillColor=#d5e8d4;" edge="1" parent="1" source="p4yBe18Hud6a5C_zWHnX-13" target="p4yBe18Hud6a5C_zWHnX-15">
          <mxGeometry relative="1" as="geometry" />
        </mxCell>
        <mxCell id="p4yBe18Hud6a5C_zWHnX-38" value="摄像头道闸控制线" style="edgeLabel;html=1;align=center;verticalAlign=middle;resizable=0;points=[];" vertex="1" connectable="0" parent="p4yBe18Hud6a5C_zWHnX-37">
          <mxGeometry x="0.0845" y="2" relative="1" as="geometry">
            <mxPoint x="2" y="14" as="offset" />
          </mxGeometry>
        </mxCell>
        <mxCell id="p4yBe18Hud6a5C_zWHnX-61" style="edgeStyle=orthogonalEdgeStyle;rounded=0;orthogonalLoop=1;jettySize=auto;html=1;exitX=0;exitY=0.5;exitDx=0;exitDy=0;entryX=0;entryY=0.25;entryDx=0;entryDy=0;endArrow=none;endFill=0;strokeColor=#b85450;fillColor=#f8cecc;" edge="1" parent="1" source="p4yBe18Hud6a5C_zWHnX-13" target="p4yBe18Hud6a5C_zWHnX-15">
          <mxGeometry relative="1" as="geometry" />
        </mxCell>
        <mxCell id="p4yBe18Hud6a5C_zWHnX-13" value="车号识别" style="shape=image;verticalLabelPosition=bottom;labelBackgroundColor=#ffffff;verticalAlign=top;aspect=fixed;imageAspect=0;image=data:image/png,iVBORw0KGgoAAAANSUhEUgAAAJAAAACWCAYAAAAxHwGlAAAgAElEQVR4Ae3dCZQuR1nwcVwRFVkENwQVERdAVERcQEQFwQXcEIEDUTEaFoFEXFmCSoCoB2JEToxwVAJEMCoKB1ldMGoQcA8BokiAKFGIG64o/Z1ff/d/LZr3nZl7Z+69czNvn1NT+9NV9fz7qerqfnuu9d73vnfajfvf//3fyfE///M/sz+Gy+PL7zziOeWlFxce06qzzq/sUsYop7qz4EPnK+0g+MuxNQ7S3vOe90z/9V//Nf3nf/7n9K53vWt63vOeN33oh37o9CEf8iHTB37gB87+B3zAB0wf/MEffNhd61rXmq5//etPp5122nTppZdO19rtAI7gaJCGjcdSfp2pTPmlF+ePaZXPL38svwmvNgarxlFa+gLRP//zP09/9md/Nv3oj/7odPbZZ09PeMITprPOOuuwE3/iE584x+W/6EUvmq6++urdA0ShKVOjUmKNA1hOfkcdqPw6v/LLc5ROznje5KxKX5VW+Wuqb5wau7GPxiIdVea///u/p3e/+92zRfq3f/u3w8ZAPWWrz2L9+7//+5y/awvk5E7c4USjVeqk/BRd2TFPeDzKK63628mo3ir/IAO0HA9jQU+sjzCfHpUDD4tElw7l/uM//mMGS9kO6XsCEKE1MOHSkDrCJE85aWMdacsjeZVd5qs/yq58/li+tKWvzDLtmhZf10fjN7osjv6PYwuqwBrHVBlQ7RogghyZOOHlCZWRpoywRnYUL22pQOXGTgXUqvJkjfKWsjbx910jNVasz7/+67/OFySQGtsu0MZVPD1WZtcAZeacxKEx//Iv/zKfiBl0QvMlWjupcjVe/aAYGyqtDqhX48kTTlblkidduHT+mCd/LFP8oPpdoPn0Zyw6CudXrjHdNUAEEoZcMHBOdvnll08/9EM/ND3+8Y+ffu7nfm665JJL5lV7gL3zne+cbx0jOoUnY/SXEASIMuTxpXUIj3lb1dfWg+jGsWrs6KLDmDkCpzEvTb68XQNEMEF8lsat3dvf/vbp937v96ZP+ZRPmW5729tOn/u5nzt9+Zd/+XT/+99/+p7v+Z75NtFt4Otf//p5sVajwWDdlEwQiPMd0lky59FZ8bGsdK7OZa2SL50b6xVfQjSWWeaNcbKX8WXamH9NC+8JQAaMIijPXGpT6gUveMH0QR/0QdO1r33t6TrXuc70ER/xEbO74Q1vON3qVreavvZrv3b6tm/7tun000+fgbrwwguniy++eHrLW94y30qSl9zAApJ0cY6Ss2B8aQArbxZwqG3LNIoMvr1Q6irg9lL+XrTxWMjYNUApOoWYykDw5Cc/+fBO5kd+5EdO17ve9eZdTjucdjuBxbfL+bEf+7HTF37hF06nnHLKdOaZZ04//dM/PV1wwQUzhK973eumv/u7vztshUBBMWByzqDJcskrjc9pI8C6K1QvEINsObjr0pflim8AOsq1gIFOIZRkAW36utvd7jZvh9sK/7AP+7AZGBYJMHzpfNvm0sDESn3UR33UxErd/OY3n25/+9tP3/Vd3zX9xE/8xPTLv/zL0ytf+crpT/7kT6Y3v/nNkzVUFonVYfn4wSXM2RhTLgUHhjRAaXt5+WNagGz81WvFXVugBp2fNfr93//96TM+4zPmZyZAAUlW58M//MPncACBiFXic561cKa9j/7oj57hC7RP/dRPne5zn/vMW+oXXXTR9JrXvGb667/+69lC/eM//uPhhXwWByQObWOJxjjYubH9IOmoP7sFh7x1MrbKW1dnv6XvCUANOsW5dX/Ws551GBpW5brXve4EHCAAhwsUvjjAQGNq62FeeSyYaZBTRnllWCpW6tRTT52e8YxnTK961avmu7+//du/nf7+7/9+ApV1WUdTWnHKcKSU0ksLrmV+cfmFq1Oc3zGmjeFVdcb8kyG8a4B0ssOAugP7mZ/5mekGN7jBYVCaolgaUAAJMPwRqixRwIBOefU54eqLB55zcZ4Sf9qnfdr09V//9fPDQNPeZZddNv3TP/3T3ERtZYWA3hSWEqVxIxTKj/H6mWLljfmV3y59WSd5J6O/JwDpuPUGpbBAv/3bvz3d4x73OLzeAUmWZYQAAEEVPPKzMCN40gIPYCxQMLFyYHMO1u5GN7rR9Imf+IkzTJ/+6Z8+fcmXfMn0oAc9aDr33HOn3/zN35wszFmpDuCwTtZETXXBNCq78ila3liu+DJtTJc35ifrZPV3DZBB7WrmGywL3fve977z+oWSwcHicEAoTTonLUBAwGVhgMKJm8I+6ZM+aV5f3frWt55ud7vbTZ/1WZ81T2tBqpzyo2WTZj31mZ/5mdMd7nCH6Su/8iunBzzgAdMP/MAPzJucL3vZy+apD/wptzWS/lFuig+iEQrQuYDU6ZDvMCbSTaXSQCrNQW75jd0IkvJjfD+Gdw1QnWqAdfq1r33t9NVf/dWzYkETJKNPweKUK5wrXllgSeNYl5vc5CbTJ3/yJ88g3eIWt5jv1tyx2bD84i/+4unzP//zZ+tjreSOztTGYpHHgUue9dNNb3rTGSjW8oEPfOD0qEc9anrKU54yWaC3fdBjGf0CAgDAAprS9F1e1gsMlRPm1HEoa8wc6ncIj2NYmcZ3v/q7BmgchAbYFEah4El5S6sTQABJuaMvHzSjRaL8NiTJFQaCuzO73SxSVskuuDtB7QCYcsBRj5+VE89ikcfC3fGOd5z3pB796EfP67lf+qVfmn73d393esMb3nD4cYy+cpTeQclBFWDyR4ACQ52AGdOki4954vvV7RqgcQBdZfZnDLgpAzRNW+AQBob0pix+LoCUoVSuuy+KBlTKVjarxNIAglwQ3OxmN5t3u1mju9zlLvOd2i1vecvZ4nzCJ3zCxH3cx33c9DEf8zFzPTKTLaydIGPxlLvNbW4z3ete95q+//u/f57yPIb5gz/4g+nP//zPp7e97W3zIh0wAUXZQBphYsmUaQoLkMpltfjSyAim/QqPdu0aIJ3tAJBNvh//8R+fFQ2M7QCiuKxRVqc09YFCqSmZPLDwQSUMGvAo8/Ef//Hzzradb6AEoN3uz/mcz5nXP3e/+92nO9/5zvP0ZRoDCQulDgdIssl0fu0KamABz/bBve997+nHfuzHpl/91V+dYfqrv/qreRf+qquumm8mbG42Pl1o4kt4pAGrB9KN54EAaOysq+eP//iP532ZrmSKoISUIZxSRh8sKQkcIJIfRPxkyAskt+7CFEv5QQgc5cVH2WRK1z5W0kNeVsq0ZWFujWXdBEpl1Feec15OmBwWSv/I55tGv/d7v3f6tV/7tekv/uIvZusEJgto1sfhIrOtYI8KYNJdycaOBesItP1sffbEAukwQQ6dfulLXzorIyVT7hIEcYopnQK40se6wKCc5ChTPgVzLA14pLudrzyIgOBcHMvCerjNFwZAu93kS/eg98u+7MvmRzH8cQ1FFqfsCFWAlu/8zqPud3zHd0znnHPOvMkJHGPFArE4gAHUmJalakz5+9ntegoLnAbBT0MsRIOiq9Wgc9JLA0PQUHB5KUT5gAEKQPjS+ZU3jYlXRp2mORCVX1rnrbz2BB8I1AmwG9/4xpO9pC/6oi+awbKnZOvAlKicdpOjTeQHrzRhkJomW+izdp7vnX/++fPbB//wD/8ww5TFma/E4W5tP8OjbbsGSMeDyBz+1Kc+dR5YSqIYCqGcoDHg8oIkZa7zg4Q/usonrzhfmnMGHF8aR7GslKmPxQGCNlYHCMLay4HC+sjGpOlNHessUH32Z3/2fNdnbeXuD2zqkt85nU+btL32kGVPyjrsnve85/Td3/3d8/M9UP3RH/3RBCrjanrjPBA23TmEHZSnTH56kCdsSmTNmiIDUX4WsPrylKuu/GSMZZLB79g1QAnT4CuuuGK+U0kJBs0UZOB2A9AITuERmGWYEpcu5WUVQGGa8eiDMkHweZ/3eXMYICAgg2yWRj/E+ayTqY9lsSdFhjqsjDs/d23u+mwlmFpBpF6ykq0v0pRx5wiob/iGb5ge/OAHz49ivMnpvSrrKWumpjy+KTClB4r0HH10yOeqBwqH+uS02C/d+1zSHesASu+7Bmg+y6EdVy+EuTMxYCCiNAoz8CNAQZCClgCM8cpmEYqPZXYSdi7t0S5tokRgsCqsiQUwiOwd2TcCAzBYGWsZlkob6pM+klM/pdvYZImso9QDlzSyQGrqAxaLx7Kpkxz90h5xbWOlvuALvmDekH3oQx86A2WTE1B/+Id/OLnjY6msoTgwgIajfGn8HiaDp7s8YemgqjwgWDe+ekF5XACq4c997nPn21sDYCByFGyAUvSRQFDZdQCNckcgq7cqf8xLgVlNymUNAGVn29qHDwhrO1aHZWFxWCLnBJIp0d2bNQ9Z5LIsgCELVNZPfHKARYYtBBC3b2aM6gcfaMaTXDcLFvZ2zR/3uMfN66jf+I3fmN+/8g46ywECMGVtsiJZoaBRBkSBJM7KeZxTHRACaAnRGN+1BSJMY7mf/MmfnAeDEii8qzNw8lNg8a38ygYQf4RiDI9yxnqVoZCUU1nKp+zkUxgQTHH1gwKBY3q6613vOn3FV3zFPN2xLNY91kWsFiDUUV7fKZ1V4QeDc4EqOU15rByQgAgmdQCoHeQFae0lF1Bg1B6bnNZQv/7rvz69+tWvnvfjvMkJCpuYpilwgQJE9CUNMAxARxYpy6XsCIxwjrXaNUDNhW5RdULHzfcU0rxPWauUlxK38kcQUvIIxLq6Y72xfO3Ip5CUkixKBhII9EG+6UYdZbQDOB7Merfb25f8L/3SL53XVcoDgSNDeQonCxSAY72cg0xpbR94tddLc6yVabO2qQus2jW2R3udR9v4ZH37t3/7PO29+MUvnqc7+vGDB9CYolgcR5YJFNIdoGsaA1QQBc7o7xqg+YzTNP3lX/7l/IRbB3RSBwPIII0dTlE78UcQjgSgZFc/n4wRKHHtc5VTKl9cGX5On1gmytev5AgX57Mu1i7tJZm+KL4yYGGltM+5WDGgkc8CkSudxbPbDU7rym/+5m+e11dNdca59mSp5AFO27sIlAGiTdJv/MZvnN9V9xgGTCwSsMDEMrFG4ACQtB6/sFaBNvrK7hogQlghz4d0toE3IKMiAMSl2J365HEGNieufspNVmWLd/7Sqy9fWwxywEgz+JRb2yvHl9ZVzsqyQMqSLY8s9d3ZWQBTpnxQAMriGlR2vt2lUWzWWj1tAwJLRaa6pi9yetSiHDl3utOdDu+eA1BZfXUBgFG8PpCl3eo6H5gs7q3ptOX7vu/7pl/5lV+ZH8VkgYAFGhBxwlmiIwaIhQkSoBQe04Wf/vSnz41q0F1xKTh4xOWnUOHtXEofffWrl8xRbvL5taH8UY5wctb56gcbpVAEF1DC+sqVzgcmGEAAFusjVsW6hQKteVgYayBAuENTRzuSB0phvnYIA9cinywwAMj2g+nUWojM3pGqz42B/hoT/eHrQ/X9xOpv/uZvZlhAwvqsgiaAcMDtyAKN0BAgHkCodSIkoz9FNOgpQFy4TulAZbfylRuVLl7dBqb65Y1+eXzpo6ydALQ8l36MfSmeX5soPcice4wDi1UBAccimWIsiN3hsQ5u+wECms4XmFlC55KmTtsE4GxLIrDIZhmBrC36ra42ka0NXrDzHrkpjX7plBPOBU8MSN8WIIVUaLFcZXFhAJlPLfxqGN/Aa6QG8xuEFJli+Efqkklu5xjljvLGdO1aurHsqnDlx7zS8ssrnu/cXHHlhKWBgALFsywUCQD7UvajWAeWyy0/qyLPNKfPySRHmCxTlHOwciwcEE15wurb1+JbZLtrND2yehbsv/iLvzgvsE1ZDnoVpudcII3+tgCpnCkTVjm/xZWf17gt1fg6B5gGa1R0g80flTumbxdWL5l88e1kNeBLf7tzLfOrX3rxVb4yjYewMRkvJHXEywNSQKhHuUByZ2aaA4TpCyA9WgEd66I8i8e6kWk8hLMyoCGLdbIms+vtzvFbvuVb5scoXsNpo5GO3cbTb7oeoRnD2wKERgARFjzSCEYp/5nPfObcMA1vIDXcwKTcfGlH4laBIc2AjcpYVa7z1KZVfmXW+evkSl/mLeWTOaaN51BXH/iNm3wQNHbSLYiBxGcxAAQGEHgFBVx20FkfIJkO+coD0sJa2Lm0RX3rrvvd737Ty1/+8vlOLGtDz+7E3Op3mGVyIzixsCOACGg+BMwIkLCvcLgSGiwDMQ6QMDcO4G7CyTYoKWE7+bVt6W/XjrH8sux4zrHcqrC6tXXMlwYasLA+lB1QQLLGUaY6wgElT1lxO+ZAcifslt+0R5Ypz3pLWVOgD1z8zu/8zvyu0jve8Y4ZGHddwOHSLX23kBZeB9GOAIq8zBmfIxitFmBIr5MGS9gAj4O8VMDRxsk0kLmdnKe2Lf3t2lD5rcpVZpVfvQAByQhE+frQdJMcYIEDBByLUlpgJVd9YWsmdSysvTpiD8kbmH4l481Jv9szPbWhaP9HnBXyK99AoVvHVvDgYkcAZXUI7ATBZO5EvcbXcX6D1ADtpX80ADn/2L7CO21XkPJX1Vknr3S+esaJMz7jmI3tCxJAOV91xQGonjBQODCpAzAAkSXsrstzPC+0eTPSBiFg+NY7LA9wAqg1rTK59J0RWfo7AkilICIwKvk+pGDeraPjgAmXPg5GafzCyhrUcSBbUEqTxykvXloy8stb+st2FV+WW8aTu85Pzk58ssmpL0BIbuctXjllTEXGAizO0yZl8sBifFkpC2fpFtqmK5uELnK35+PLa+ABCYDkeW5Gt3RtKqPv1r1LaMb4tgBlymZ7duj7h53IyZ/znOfM2/carXPjVSVssBrcBmdMk9eANiBjPXnqJYM/Dm4y88lY5cb6Y3hV2SNJG2VtFR5l1lb+mF64fH0HjXSQkA+mLI48cfDkWJ2v+qqvmp70pCfNr32wPHQIBpbHuma0Om7VWSMQZRzA1fQ1wrIqvC1AhGZ9CHByJ+1kL3zhC+dFmz2G5unlQDKvOmpADIawzjeA0kFTPH+UI00ZA1VZ+dJHlxKW/ihrDC/LHWl8lLUqfKTylK8/xoVM41WauLEDlHQw8Vkot+jebvRNgN4VaqlBd+mMz4GKAxinDN3SsUOZVdCMadsCRJCTEJbQTJ+0N77xjfMvOX1Qypt0bg/9dNieRav/rg5+ptgABIQ0TjyYKmvgSuM3kKUV52+lrFXKlbZVHXnr6u00fZS/XZ3K1id9BAunrjGSB5hx2jJdWTCfd955sz4skIFA0Y7gSH/F5dNhuhVXT/4I3gjMMrwtQAQhEkQdwtI45k6DzZtMJPK9MWfh5pUCD+zshtpq96Q6qMDCMjG5rqLiwDFYDZTBk2/w5BnUUbEN+nb+OuUdbb118naTXlv0XT/rq/6TG0jSpXnUYf358Ic/fN7TcWHTVwAIdwhzYMnqBEPlxYWDqvyt/G0B0oBOis7I1pholb+EybzqxA5vy3kVE1S+kmG/AkgeNLr953uOFjwGCFygMagpRX5XZHkN+nZ+Mpb+0dZbytmLeG0JIBeVMNmAsUAWNmac7w94gcxF7HHSW9/61vmtRHdVdOIABD0ExZx4SKeBM0KjnPKlbQWPvB0BVEM0jFPR4WQWZV6lZH2yUsDyYO7KK6+cO6cswKTpqHw/CfY6pn/uYcqzk2rADBLzDBCwCINJXlelQTXYBrNB385fp+CjrbdO3m7StWWER5/JCyL54jYELRn8cxSLZOPfYSYYoZHuYpdGP1yQBFWWKVjG/NLW+dsC1MlHoWNYAwGhYcoGlwaL1zgWqb2FQPQ7etbJawQ+XGBrnZWyMemBYgNmIF2BHIhSUiBtB0Fyqjf629Udyx5NeJS/XX1llwBllV1Q6rvAfHvALnJWwriyQnRgOSGeHuiHvjrUSTfKCDvSnbTKp2dp69y2AKlI+HiSGi7PUdwJWRodkccHi7Qg44tL12lxZQHmamK1fD/a5+p85cNgeebDQoGnOw6DGRgGHWTjlZripJWeAsmpbnLGctWtjLzC68qP5xhlCY/nI0e88vnkVpZfuH65eJSxw+xRhLEz7sYPMMaensRHKKQFhzKjS7eVWeUrs5U7KoA0opOPkAjrTB1QJrgqz1dfWZ0NMHGufHlA81szU5zFtoE3nRlMijDI+QY3Vxq/NHW54vyUQ07prvjqyRceXeesPL/ywmO++pUby4zyxnR1g0t6sqQ1nXuC7gNegWK8R4C6WJcwNK7HHaBVDQmGrE+NBoswX70aq/zSyVMuiAzCGA5GFsk7LEw3cJjyAEoRgcEvnGJS4pheWsoXLz+FB4P0ZI150qpTO/hkUXyypQXGUpb4mFZZfvWr68KxcPYRLNO+sTNGjX16EufSUeni6YOfPspf51dunb+tBRoFj0LmuevQnzFdx2rg2OB1YSLkqUeOQQGSNFBZKPaAEEQGkpXo6swiGfAUIpwiU4ZygZOCi4915UlXvnUHGdJG69Q5nFPeCAIZnUN68bHcKHOsS648rrY4Lwuk//Z62l0GSuOaPowjt05vyo/6GssdTfioAHKi8dCgTl5Yfmlb+cmpjPoGxtTmjs3HGrwHTJnWPxzlGtD81kXu2FgnilJ+VIA1lHx56qXY0sTVzdKN5ShQOeckV1l+QAeDtJSvfmDyC0tXnxMOrurV5rGc9prC+b7BbXwcLjZHY24MhYuPfulH6qeXdf4RA5SgueWHGl+j6kBl+B2r0uQ1CK6MDmGD5Lbf93b8soECUzxlUDYohKULp3x5oPJoBXzyxe3YetkqWcpTlHLyhdUFArmBo34KTcHJpFhpAcIf29S5yCKXEwZQ9ZRPrnyyKyNPmulLH21/sDCOEZAs0ZiWVU8/R+OPelsVPiKAVglYptXITOUyv3jlxB35mWDTmAW0XxnYaDSoBr3BNpheYqN8yjXInlLb9faBAl+98JqJV0G/6Zu+ad4a8PqmH/95zOLZHaWQmXUJEspzPjJHS8FKOP/olOWCFojiWRRWixtBkh9AwOkczs/J55Mhj0xO260JjY3xM2aNY+NdnL8qbczfSTh9rfN3BVANGIXPNAxAlFd6sIzpwjrraF4X9k9bDHwD3JVJWQaX309bgAYKENnVpnwWhsURp0RhMHJ+seD5kRfXU7ZynU99oMhLqbWDMslg3bSh1yuUVybYhUsDBVjICxr5zscFXedUTli79ZGl+5Ef+ZF5t9l4GfvRX46rPEc6ypdevWSUdjT+rgA6mhMu62SO594e+mNas8PtmdqoBMqiWAPOAhlcvyiwyAYHYJqOpFG0dHXUFaYIYb4X0/3kxa8WgoziOk+Kdh75tUU8pYOLfGnyxYVrJwjIcT7p8isnLzjJkw4+5aVri34CFUTWPyyQi60Lbjmexzt+wgHCjE67GhoUvunLxwIMosE0wAChGGkAYdKta4KGT9EG2062f3lg2jKl+dWIshRk6gKJnymDyGsQpj5pzqNMMAo7n/SUD0yKNRWeccYZ84tbpkqylOeUIUN7WJfqgwM4YAmUwCFfG8T1k6vPXoa3JnRzYbwat0PX3DHztgNyXwCUeR1Nqk/oeppP2RTC5yjCD/D8KoHiKQMIFMqaeAzyhCc8YXra0542+bCAbzby/YsD/4fMf0y0GWf9RJ56piDPl0xrIHMOMp2X1XCOwEjJAAGm11l8F8k7OP5HyGMe85jptNNOm3+HbloFOijIUYcjA1TBElDSnAdYfPCUxtJSpineGuh4HfseoBrYgBgcU5gPALjCXf0cZbMwpgLgULZ0A83Ee9xhjeARiFdKmga7ywOnwffE2ktwNuT8vIVCXfFkiXvtBDwpPSWyBpRJucLeJiCDRWgTVB88YnjTm940g+t/czz2sY+dvvM7v3NeyPsJjjWXfgCKA2t9JJ8DFMjkaZv2eIshC91Y6dOxPtLPOv+EWyANczQYlOGJ8kte8pLZOgCkgTQdUDBzLp2SgeVRh1drPZUGjI02n4XznZxXvOIV879eEPbAFlwg9Q7wz/7sz84wUhoIyWeJ/ACvqQNgWSHwNN2A4dnPfvYMj7Y7L5+Su0uS1nYEi/rzP//z87YEy2X6BSyracrVH2ACJ6ddwtrEooLTQe4SpjljxZ91it+r9BMOUH02KA5KMNf7qa0BzMy76/FbJ4Pp6u+Oyk9W/BsCi0sbj3zfaTb9UVLOrxO8MQkobwGAlDXyf8ZMYSBh3ew5WT+1XnJ+ALMKFCxOqSCwyAdIB6VQrDT9EXeTULiy4t5A8LCYlTKtevHOxQEmMLNSzgUskNVudYOni67zr/L3CpR1ck44QBpmIDhhhynAf9Jp2uBbq1AueFgBvkWyp/XKuzp94dT+j/wU3dXMUrEqnmaT/ad/+qfznR7g/Gty+SwMWEydpknKUz9wmnakmZb82gEUrCaljn0QbyNPmOvnNCleWn2Wpg8sJWsDUGs9bfaSvH9PVT0QCe9kLbRO8XuVvi8AMpCObundrn7d133dvDZw5bsaTVsGlCWiSNboa77ma+ZBpxgfnbSAlk/B1hVAAoapCRhZGVYMRF4hcU7WwJoqYFkCd2WU13pEGwAFTNPaD/7gD871KdM7OBTKAaqwfgk7B4VlgfRVPefnrKNsW7Cg2uJdH1bYNHvppZfOt+/qOE/QkevYKxCOVs4JA2gcZAMRRDriY1UWmywCEEwxNgm9Uy0sjcL9Jr838ExPFA8UIHS30/qCLDCxZEByh+SbRqYzigVUaytTiK9XqJv14TsvOLWDldBmVoMFChLt1zd5o7LlsxgceDjnFR/LlU6mfPIBpp/1tfFynhQ/07TiT/nHyj9hADXQ/AZb/12R/ucqJaYwCnfbzgI1pfjaVx+R9H5MUw5FsxrWTyxQC1H1wMWKgAmI/gOPK52y/OzXhiLwWBvwmO7UV4csMjgfcvIuMijUpfQRgi6OsY/SlOcCrHrBBRRWJmjAJQ4kedKrwz/wABlgh4Ho8Ntt7+qD2/oAAA+2SURBVPtmQUwjFAgQAIGD8v27gK5MG44slDyQqNsClOKbwoAjjxXi7K2AjxxrIZCqB1ibgoBSn1yOBdMWX/PyT2W0O4WmTH7h+qafo5MuDjpl+SAiCzSAAWZWSJkgS3bAJrfxW/rlHyv/hFqgsVM6bpDc2VAQxXGUyRL5hJupQ5rp5Yd/+IfnAWZBHvGIRxz+OggAwBEI6ooDi/UIIHL9OsQi3BqK0uwmSwca6+NWXf0sIaso37lZP+0PoLEvhQMlpab8MS5tVTqQWOPygovs5JZXWnJHv7YcK/+4AVSndaSOSwNNh3S34G65geJqb9qxZrEuAoa7MZ8UdrAeboPdggOkKSxgyGkdQ15TEjmslv/tYZrQLh9dUkZ5ALF6LE/tyLp58d90wgGPcuvTqKj6xZeepaks38EvL59MssU5YX1tzVT6uvN17jH/WISPO0AN1jiIOtZhX8ZURWlZCz4LVLrHA3aBDSLr4RGFOyuwsDYgoXhxYXABRho/KN1p+bq+K91dkN1s5ZWxoLbRB8rAU98e0YUXXjjXAV5roPqzVFL9kt40pd2Vly8sb5ULTnXA43x8dRzj+TpX/ph3rMLHHaCunAbQYHAGz22srf+moJRJcX5Ex2JQJuXa2lfPLS+FslDWKCMkwhyA1BMGIyg4m3dum8FjX8iUZYpSzhrIlKYtLBJHhu/s+CIJi+Co7fozOgpzjL6+62d9lzeGRyUnS50O+eov08Z6Y9kx/ViFjwtAY6caRL5BCiBhG3M+DkCJYLD2sB6hbNOavR8LaBbC4ws7ya5Im2yUT8GsC2WrQ/lgACJwWgTLs9Ns38gVbnA9Q/PyvrJcH6N0fs45yfc1WnszAaQf9WXsG5kO/eqQJl7eGC8sf1lmLF+YzM4rLSe98PHwjzlAdaiB5IOmwyCAQGc9Nff6hbsmSqQ4O86gAI4t/W7vPU33q9ZMvHWJ6YWiA7CNQIo3nZXnNt1Gpf0m+0DO7wm6TUjweRZmN9q5AQhkVowM/4KJpQSQcwdNlkX/pHH1/Xgo8kSd47gAZCADyMAa+NLAVJ7XISgOQBQGHFaExRAGkLUOa0LZbsMB4CGqB6WPfOQjZ+WrA0AwUHrWSD1w2YT8qZ/6qfn9Yt/FYVFAA1hwaYMPWWqH8tLJtPbyc2zw6McIS/HS6tOJUuzxOu8xB0hHHHXIQHPirloOUEDyeICiKJ5vymE1AED5FA8iipVGoe6iQOQOxZ4OMHxixnTHerBCYCJPmmdYz3/+8+fpzwLcGsh6CijKekjrHLYKWB5tUJ8VM016zBIs9QUsgVNe/b2m+8cNoCAy0A1qlqh1jPUPRVF86w4KZBX41i0sg/UJi8RZWPutlI1Ad0Wg8NPfs88+e3rIQx4yP3D1ocmHPexh01lnnTUvgL3SoZyHrz6NYqpqenP77pGIKRM40oGlPf6BrsU22IHSBVB/SquP+eVfE/3jClADGkwU4AAS6+HztACiOBaG0lgbjlWSZwqzQ0zB8lkOYIHDO0DuytyWU6Z9Gv9FyOYkYJzHdOdrpCADFQg9tgCK9RUrZX3V+9PaAWDnsl3gRf9xCtOH+rUBaFjN7/XVApQGWthgizso3FuCfiVBYRxggGTqomTTSWsfFgNI3tRjHSif0u0NeYXVtMQigYW1cZcGLL+pcqd30UUXTaeccsoMjqmNxQOktY8tAucVB5Gw8zs32dZMLBAYtR9A9YVfeK/Hb7/KOy4WSOcdBjxHCaVTtL0c+y5AaQqjPHBwLAALxFlgu+OyV2MxrU71pHl/hkUCij2b3/qt35offrpr8xAWGKBwHqCycPaRgolMVilotcNjlEsuueTwbjCAmsLyAyiI9Hm/Kn6v2nVcAMrSNMAG3KK3AXZb7BGGjT1Kc+cUEKaogKJ0Cm9qs9C14LU+Ul6e8gAw7bBUgLLYVkZ9DoCgkSbM8rE+8sipXLCSqW3WTD0Rz/roC5i4wJEmXP/2Sln7Uc4xB8ggGmyddxjY9lDELXzBZP3yrd/6rbOFocCsT3CASDprRLEAAYypxjMrFgQo0tRVRlnTYeVBIwwScj1bs2AGEetTOdNiUydZ4qeeeup02WWXzW0NmPrVlKaP+gegLpr9qPS9bNMxB2hsrEE1wA2ygfY03eFlKf/WmkWhSMAAABCUKdyejjAAlKPgFtZAsmNtf8iUA7KgUcc6yTM170lbiFvvKEdGC3KwgMl5hcFGhu0C66jaD3pO/zYAHcPFc1di1ocCDDrf7bu7I2Hl/MbKLyXsRvcyF8UGD0WzQkDiTC3SshwetrrNd2sPKnC4qxLnc9ZOnLLWQlmyrJJzOUdAke0uz4v7rGXtB4/Fv760HuoC2VigPQQqgIImBfBdufKBxJna3DH5BUL7ON4a9KtSELjNZo1AEziU3XQzTl/WQSDi7DJzXgNhudRhXYRZOhaGPPCQYdoTFwaYfSd3cIABh0N7QaT90oImiMZ+6/s11Z2wKSyrw3dl934NpQDJE3IKs3HnmZW7Ks+rLHYpNyWzQqYcUEhjmSg+SwIUZZru+PKCRT356oCJ7KybPHD56ZD2BTyAtDOA9AFAY58AdE2FZuzXcQfIQHfHoiFZH+mAAU5Xd0qhmKA688wz5/2fIAGNMDD4ph4gmJKyInxuhAc0LBdLpXwQkQEggIHHNOfnyuDhtAkc2lg4q7OMjwN9TQ0fc4C6EvndvXTFgqKr2FVtkClBOscyWbhKc1Dg6aefPiscKBRN+UCgbEoHTlYIDPI5AGV5gk2+uiAMKFYn0Fg26ygbiIDRpiDSF+3Vl/wNQMdgrjbADgClAANOAaxNV68dY3HplOQwbSirjMU22Px3RAqmeErnQBMk8gJLGkgCRnoWi68e392ZMCgBZG3EKe8BrvWPc2ub/tRm7ax//A1AxwAgAOzEUcrSqeegOHkU5vdbWR8KTvF8DjSlyc8BpXD1pQn3XA00LJlywPN/KPx2DPi1ha89fMDwD7I75lPYkQzuCFD1RoAobi8ACiQAucsytbXYdnvv3WhvHtod94vX2jC2SdhR2kH19xVAq5SQ8sAFIO8MZUGAIMxlfVggbiwTMKMPntZFypsSTXV+IuTBrqf4HpyaRk1PTauBM8ZXtfugpO1bgObL+9CfpowjAQhQATaCUziAWB4gBaCHuqYm4HRHCN4OeQ5tcRwUUNb1c18CNGtm+BNAlGcRHRhZn1UWqHVQZZZ1xEHE8ljvcJ6J+S61NY9Fc3deNcX5WzQbUOF1A3tQ0k8agCiRwo4UoCVII1BBZepy9+UVDr9U7W4RuKwQGFqfBVPxgwLKun4eKIDAlAMSgCygWaFgMoUZLPBkYYKGL48lalpbN7AHJX3fAEQh46CPSmu9QaF+l56yR+si3AKaX94ITOEx3zQGpvaVvHDP6nhR3zrI0YK5NgZS8bHdBy28bwBaDvwIUJaAwkxhQEjxQTH6S5DGvGVYWbJAaSr7hV/4hXnt45zOtxUkW+Ut+3NNjZ9UAFHqEqDWNEt/Ccq6OICyaADybUZroODYDqJrKhg77ddJDRDFb+eWYC3jAJLGdzsPoO76DOIGoK132vc9QJTYFLbKApl+moJWwbQEZhlnmUaAfB3NInmEZwPReohOeoBWQSNtCcp28SzQCNC4DmpK26lpPyjl9j1AFtOrLNDRQLIOIrICaJzCsjwbeE5iC7QKIMqm9KafEYzlYnnMWxdOlt3oEaBxGjsoFuVI+3lSWiAAgWEvACJjFUBtI2xlfbbKO1JFnKzlTwqALGqzRG7jR0uytDjL+Fh2Xbg9Jb7/udHGZecMFPGTVdHHqt0nLUBZnyUwy/g6aMZ0FkicvwFo/XpnFYQnNUBLWI4mvgTJf+AZ94G6EzN4Gwv0/nCddAD1QtnRwLJVnUC64IILZoCatjYAvT80oyU6KQHaCoSjyRsX5QE0bh0E08YCvT9MJxVAFtMsEEgofSduO6BYHnK6E2sjcVy4bwB6f3CyQhuAVgDE+mwAWg9N8PCv8QBtZ6WyQG7hWSsWCEDdym/WQFuDtAFosEBgAhB4mrY2AG0A2nKtlAWyBuI2AG0NzDh9baaw4V0gIAGouzCDwwqNFmg5eJv4Zg30Ps/UAsg70BuAdmaJDvwayMKZ9eFbSLNA40v0rYVGa7Mqbcw/SOENQAuAPMrwTrQDKKtgWZV2kKAZ+7oB6NDrHG73vRO9HUDroBoH9SCFNwBtANrVKyobgA6tfVigftaz3RroIFmY7fq6AWgBkH2gDUA7uwMD1wagASBroPaBtlpEb3dVHqT8DUDDGsht/PhC2WbBvL0l2gB06DbeXhDn34D3RuIGoA1AWz4Hs3BuE9EutHhfKAse/kGako60rwfeAgWQ6QtAPjDlXaCegW0A2toKbQA69DpHAPnE3QagraEZrdS+AWj5vvH8LOHQn6wBxfpdGEuxV65nYHwyrYFYHesg5x0HqzaVtrFO++g2fiuAKMrB9040RVuztG7ZCiZgbOWSFUB94i54nHMDynqLtG8sUFf16HfFszyUOFoga5etwDmSvNZB6qwDKJBGmJbQj20/KOF9DVBKCCBWYa+nMNCMFsoU5jyrpjDtCSThDUD7aAoLlqVPSRSasprCKH0vrFDwkGVKZIGcL2gDZW7Aod/GZ4Vq07LNBym+ry0QRTnGD3/3jUTKpvS9cCByF+bzLu7CAsC5R1gCprTKHWR/3wJESVme/u2Ar8ePn/k1/ewWIOCQ4TmYp/H2gZyX04alJQKL9A1E/39hvW8AWipEnBL774XiDgC1QN6LuzBWh5wAsgZi8fo3B57MjxBtAHrfO7J9AVBXO+UIpzTA9GqFsP9eeMYZZ8xTDaW3DtqNFWoRDST/vM7nXcDjvAd5atpp3084QMBgXbJAAdQDTXGHOMtw8cUXT+ecc850/vnnz/8i/Lzzzpu2cv6N+FbO6xucMueee+50+eWXv8/5atdOB/SglTvhABnwlERzAcQCjGD5h7zS/B9V/xrcv8i88sorp6uuumpXjhz/1uCKK66Y5V599dWHb+FBO7bhoMGxk/7uO4AojOI4MAWXBTR4AglsO+ngdmWcw5TV/8XwfzKcQ73WPrUhWbOJ2qPzJ/Nk9U84QOMVTjHiFMdRbmE+iCiYr1zlk3G0PniyeHzwLmWPCp4zNwDNF9m+AigljSAAx9pHmnxx/l4eoHEA1kG+8zlXbaltG38f3oWNSklhAZNCWQWKBhOXdeLvxoEkcLI82pMlqh1jGzfh/4PohFug+ZI/9IdiAiglUbBDekdKLb6Vn5x1fvCMIJEnfV2dTfoA0FaDv8nbjMB2I3Ct7Qps8jcjsNUIbADaanQ2eduOwAagbYdoU2CrEdgAtNXobPK2HYENQNsO0abAViPw/wD/RuyzshXhVwAAAABJRU5ErkJggg==;direction=east;flipH=1;" vertex="1" parent="1">
          <mxGeometry x="50" y="369.99999999999994" width="50" height="52.08" as="geometry" />
        </mxCell>
        <mxCell id="p4yBe18Hud6a5C_zWHnX-25" style="edgeStyle=orthogonalEdgeStyle;rounded=0;orthogonalLoop=1;jettySize=auto;html=1;exitX=0.5;exitY=1;exitDx=0;exitDy=0;entryX=0;entryY=0.5;entryDx=0;entryDy=0;endArrow=none;endFill=0;fillColor=#d5e8d4;strokeColor=#82b366;" edge="1" parent="1" source="p4yBe18Hud6a5C_zWHnX-15" target="p4yBe18Hud6a5C_zWHnX-22">
          <mxGeometry relative="1" as="geometry" />
        </mxCell>
        <mxCell id="p4yBe18Hud6a5C_zWHnX-40" value="系统控制道闸" style="edgeLabel;html=1;align=center;verticalAlign=middle;resizable=0;points=[];" vertex="1" connectable="0" parent="p4yBe18Hud6a5C_zWHnX-25">
          <mxGeometry x="0.3257" relative="1" as="geometry">
            <mxPoint as="offset" />
          </mxGeometry>
        </mxCell>
        <mxCell id="p4yBe18Hud6a5C_zWHnX-15" value="道闸" style="rounded=0;whiteSpace=wrap;html=1;" vertex="1" parent="1">
          <mxGeometry x="130" y="310" width="20" height="30" as="geometry" />
        </mxCell>
        <mxCell id="p4yBe18Hud6a5C_zWHnX-26" style="edgeStyle=orthogonalEdgeStyle;rounded=0;orthogonalLoop=1;jettySize=auto;html=1;exitX=0.5;exitY=1;exitDx=0;exitDy=0;entryX=1;entryY=0.5;entryDx=0;entryDy=0;endArrow=none;endFill=0;fillColor=#d5e8d4;strokeColor=#82b366;" edge="1" parent="1" source="p4yBe18Hud6a5C_zWHnX-16" target="p4yBe18Hud6a5C_zWHnX-22">
          <mxGeometry relative="1" as="geometry" />
        </mxCell>
        <mxCell id="p4yBe18Hud6a5C_zWHnX-41" value="系统控制道闸" style="edgeLabel;html=1;align=center;verticalAlign=middle;resizable=0;points=[];" vertex="1" connectable="0" parent="p4yBe18Hud6a5C_zWHnX-26">
          <mxGeometry x="0.4195" y="3" relative="1" as="geometry">
            <mxPoint as="offset" />
          </mxGeometry>
        </mxCell>
        <mxCell id="p4yBe18Hud6a5C_zWHnX-16" value="道闸" style="rounded=0;whiteSpace=wrap;html=1;" vertex="1" parent="1">
          <mxGeometry x="700" y="170" width="20" height="30" as="geometry" />
        </mxCell>
        <mxCell id="p4yBe18Hud6a5C_zWHnX-20" value="电脑" style="rounded=0;whiteSpace=wrap;html=1;" vertex="1" parent="1">
          <mxGeometry x="210" y="570" width="120" height="60" as="geometry" />
        </mxCell>
        <mxCell id="p4yBe18Hud6a5C_zWHnX-28" style="rounded=0;orthogonalLoop=1;jettySize=auto;html=1;entryX=0.5;entryY=1;entryDx=0;entryDy=0;edgeStyle=orthogonalEdgeStyle;endArrow=none;endFill=0;fillColor=#d5e8d4;strokeColor=#82b366;" edge="1" parent="1" source="p4yBe18Hud6a5C_zWHnX-21" target="p4yBe18Hud6a5C_zWHnX-22">
          <mxGeometry relative="1" as="geometry" />
        </mxCell>
        <mxCell id="p4yBe18Hud6a5C_zWHnX-47" value="网线" style="edgeLabel;html=1;align=center;verticalAlign=middle;resizable=0;points=[];" vertex="1" connectable="0" parent="p4yBe18Hud6a5C_zWHnX-28">
          <mxGeometry x="-0.2" y="1" relative="1" as="geometry">
            <mxPoint as="offset" />
          </mxGeometry>
        </mxCell>
        <mxCell id="p4yBe18Hud6a5C_zWHnX-32" style="edgeStyle=orthogonalEdgeStyle;rounded=0;orthogonalLoop=1;jettySize=auto;html=1;exitX=0.5;exitY=1;exitDx=0;exitDy=0;entryX=1;entryY=0.5;entryDx=0;entryDy=0;endArrow=none;endFill=0;strokeColor=#82b366;fillColor=#d5e8d4;" edge="1" parent="1" source="p4yBe18Hud6a5C_zWHnX-21" target="p4yBe18Hud6a5C_zWHnX-20">
          <mxGeometry relative="1" as="geometry" />
        </mxCell>
        <mxCell id="p4yBe18Hud6a5C_zWHnX-21" value="交换机" style="rounded=0;whiteSpace=wrap;html=1;" vertex="1" parent="1">
          <mxGeometry x="340" y="540" width="120" height="25" as="geometry" />
        </mxCell>
        <mxCell id="p4yBe18Hud6a5C_zWHnX-64" style="edgeStyle=orthogonalEdgeStyle;rounded=0;orthogonalLoop=1;jettySize=auto;html=1;exitX=0.25;exitY=0;exitDx=0;exitDy=0;entryX=0;entryY=0.5;entryDx=0;entryDy=0;endArrow=none;endFill=0;strokeColor=#82b366;fillColor=#d5e8d4;" edge="1" parent="1" source="p4yBe18Hud6a5C_zWHnX-22" target="p4yBe18Hud6a5C_zWHnX-3">
          <mxGeometry relative="1" as="geometry">
            <Array as="points">
              <mxPoint x="373" y="420" />
              <mxPoint x="170" y="420" />
              <mxPoint x="170" y="155" />
            </Array>
          </mxGeometry>
        </mxCell>
        <mxCell id="p4yBe18Hud6a5C_zWHnX-22" value="zlan控制器" style="rounded=0;whiteSpace=wrap;html=1;" vertex="1" parent="1">
          <mxGeometry x="345" y="470" width="110" height="30" as="geometry" />
        </mxCell>
        <mxCell id="p4yBe18Hud6a5C_zWHnX-44" value="红外控制线" style="text;html=1;align=center;verticalAlign=middle;resizable=0;points=[];autosize=1;" vertex="1" parent="1">
          <mxGeometry x="490" y="400" width="80" height="20" as="geometry" />
        </mxCell>
        <mxCell id="p4yBe18Hud6a5C_zWHnX-60" style="edgeStyle=orthogonalEdgeStyle;rounded=0;orthogonalLoop=1;jettySize=auto;html=1;exitX=0;exitY=0.5;exitDx=0;exitDy=0;entryX=0;entryY=0.5;entryDx=0;entryDy=0;endArrow=none;endFill=0;strokeColor=#b85450;fillColor=#f8cecc;" edge="1" parent="1" source="p4yBe18Hud6a5C_zWHnX-53" target="p4yBe18Hud6a5C_zWHnX-13">
          <mxGeometry relative="1" as="geometry" />
        </mxCell>
        <mxCell id="p4yBe18Hud6a5C_zWHnX-62" style="edgeStyle=orthogonalEdgeStyle;rounded=0;orthogonalLoop=1;jettySize=auto;html=1;exitX=1;exitY=0.5;exitDx=0;exitDy=0;entryX=1;entryY=0.5;entryDx=0;entryDy=0;endArrow=none;endFill=0;strokeColor=#b85450;fillColor=#f8cecc;" edge="1" parent="1" source="p4yBe18Hud6a5C_zWHnX-53" target="p4yBe18Hud6a5C_zWHnX-11">
          <mxGeometry relative="1" as="geometry">
            <Array as="points">
              <mxPoint x="810" y="650" />
              <mxPoint x="810" y="120" />
            </Array>
          </mxGeometry>
        </mxCell>
        <mxCell id="p4yBe18Hud6a5C_zWHnX-63" style="edgeStyle=orthogonalEdgeStyle;rounded=0;orthogonalLoop=1;jettySize=auto;html=1;exitX=1;exitY=0.5;exitDx=0;exitDy=0;entryX=1;entryY=0.5;entryDx=0;entryDy=0;endArrow=none;endFill=0;strokeColor=#b85450;fillColor=#f8cecc;" edge="1" parent="1" source="p4yBe18Hud6a5C_zWHnX-53" target="p4yBe18Hud6a5C_zWHnX-16">
          <mxGeometry relative="1" as="geometry">
            <Array as="points">
              <mxPoint x="810" y="650" />
              <mxPoint x="810" y="185" />
            </Array>
          </mxGeometry>
        </mxCell>
        <mxCell id="p4yBe18Hud6a5C_zWHnX-53" value="220v电源" style="rounded=0;whiteSpace=wrap;html=1;" vertex="1" parent="1">
          <mxGeometry x="455" y="620" width="90" height="40" as="geometry" />
        </mxCell>
      </root>
    </mxGraphModel>
  </diagram>
</mxfile>
